<?xml version="1.0" encoding="iso-8859-1"?>
<!-- Generator: Adobe Illustrator 19.0.0, SVG Export Plug-In . SVG Version: 6.00 Build 0)  -->
<svg version="1.1" id="Capa_1" xmlns="http://www.w3.org/2000/svg" xmlns:xlink="http://www.w3.org/1999/xlink" x="0px" y="0px"
	 viewBox="0 0 512 512" style="enable-background:new 0 0 512 512;" xml:space="preserve">
<g>
	<path style="fill:#7FD6F5;" d="M249.75,90c-44.28,0-80,35.907-80,80c0-44.18-35.823-80-80-80c-44.185,0-80,35.828-80,80v40
		c35.825,0,284.138,0,320,0v-40C329.75,125.82,293.927,90,249.75,90z"/>
	<path style="fill:#7FD6F5;" d="M441.75,270c33.14,0,60,26.86,60,60s-26.86,60-60,60s-60-26.86-60-60S408.61,270,441.75,270z"/>
</g>
<g>
	<path style="fill:#3C435A;" d="M461.75,250v20c-13.99,0-26.01,0-40,0v-20c0-11.05,8.95-20,20-20
		C452.79,230,461.75,238.96,461.75,250z"/>
	<path style="fill:#3C435A;" d="M441.75,310c11.03,0,20,8.97,20,20s-8.97,20-20,20s-20-8.97-20-20S430.72,310,441.75,310z"/>
	<path style="fill:#3C435A;" d="M289.75,10h-100v40h40v42.52h40V50h20c11.05,0,20-8.95,20-20S300.8,10,289.75,10z"/>
</g>
<g>
	<rect x="149.75" y="10" style="fill:#7FD6F5;" width="40" height="40"/>
	<path style="fill:#7FD6F5;" d="M9.75,416v66c0,11.05,8.95,20,20,20h120c11.05,0,20-8.95,20-20c0,11.05,8.95,20,20,20h120
		c11.05,0,20-8.95,20-20v-66C311.994,416,27.506,416,9.75,416z"/>
</g>
<path style="fill:#D6EDFF;" d="M9.75,376v40c17.756,0,302.244,0,320,0v-40C311.994,376,27.506,376,9.75,376z"/>
<path style="fill:#7FD6F5;" d="M9.75,250v126c17.756,0,302.244,0,320,0V250C311.994,250,27.506,250,9.75,250z"/>
<path style="fill:#D6EDFF;" d="M9.75,210v40c17.756,0,302.244,0,320,0v-40C248.469,210,87.398,210,9.75,210z"/>
<path style="fill:#3C435A;" d="M49.75,10c-11.05,0-20,8.95-20,20s8.95,20,20,20h20v42.52h40V50h40V10H49.75z"/>
<path d="M250,120c-5.52,0-10,4.48-10,10c0,5.52,4.48,10,10,10s10-4.48,10-10C260,124.48,255.52,120,250,120z"/>
<path d="M90,140c5.52,0,10-4.48,10-10c0-5.52-4.48-10-10-10s-10,4.48-10,10C80,135.52,84.48,140,90,140z"/>
<path d="M30,512h120c7.678,0,14.688-2.902,20-7.663c5.312,4.761,12.322,7.663,20,7.663h120c16.542,0,30-13.458,30-30
	c0-9.648,0-266.063,0-312c0-38.447-24.306-72.298-60-84.877V60h10c13.036,0,24.152-8.361,28.28-20H382c27.57,0,50,22.43,50,50
	v131.72c-11.639,4.128-20,15.243-20,28.28v16.768c-23.627,11.255-40,35.365-40,63.232c0,38.598,31.402,70,70,70s70-31.402,70-70
	c0-27.867-16.373-51.976-40-63.232V250c0-13.334-8.616-24.28-20-28.297V90c0-38.599-31.401-70-70-70h-63.72
	C314.152,8.361,303.036,0,290,0C279.954,0,60.189,0,50,0C33.458,0,20,13.458,20,30s13.458,30,30,30h10v25.123
	C24.309,97.698,0,131.55,0,170c0,3.927,0,306.794,0,312C0,498.542,13.458,512,30,512z M492,330c0,27.57-22.43,50-50,50
	s-50-22.43-50-50s22.43-50,50-50S492,302.43,492,330z M432,260v-10c0-5.514,4.486-10,10-10c5.52,0,10,4.479,10,10v10H432z M160,220
	v20H20v-20H160z M320,220v20H180v-20H320z M160,260v106H20V260H160z M180,366V260h140v106H180z M20,386h140v20H20V386z M180,386h140
	v20H180V386z M150,492H30c-5.514,0-10-4.486-10-10v-56h140v56C160,487.514,155.514,492,150,492z M310,492H190
	c-5.514,0-10-4.486-10-10v-56h140v56C320,487.514,315.514,492,310,492z M320,170v30h-20v-30c0-8.796-2.324-17.448-6.723-25.021
	c-2.773-4.776-8.893-6.403-13.669-3.626c-4.776,2.773-6.399,8.893-3.626,13.669C278.61,159.548,280,164.728,280,170v30H180v-30
	c0-32.942,22.598-60.099,52.485-67.794c11.408-2.928,23.629-2.926,35.021-0.002C298.414,110.16,320,138.039,320,170z M220,60v25.137
	c-21.645,7.658-39.509,23.296-50.01,43.608c-10.321-20.019-27.984-35.866-49.99-43.621V60C151.084,60,188.885,60,220,60z M300,30
	c0,5.514-4.486,10-10,10h-20c-5.522,0-10,4.478-10,10v30.572c-6.637-0.731-13.359-0.731-20,0V50c0-5.522-4.478-10-10-10h-30V20h90
	C295.514,20,300,24.486,300,30z M180,40h-20V20h20V40z M50,40c-5.514,0-10-4.486-10-10s4.486-10,10-10h90v20h-30
	c-5.522,0-10,4.478-10,10v30.572c-6.637-0.731-13.359-0.731-20,0V50c0-5.522-4.478-10-10-10H50z M72.485,102.206
	c11.408-2.928,23.629-2.926,35.021-0.002C138.414,110.16,160,138.039,160,170v30h-20v-30c0-8.796-2.324-17.448-6.723-25.021
	c-2.772-4.776-8.894-6.403-13.669-3.626c-4.776,2.773-6.399,8.893-3.626,13.669C118.61,159.548,120,164.728,120,170v30H20v-30
	C20,138.039,41.586,110.16,72.485,102.206z"/>
<path d="M412,330c0,16.542,13.458,30,30,30s30-13.458,30-30s-13.458-30-30-30S412,313.458,412,330z M452,330c0,5.514-4.486,10-10,10
	s-10-4.486-10-10s4.486-10,10-10S452,324.486,452,330z"/>
<g>
</g>
<g>
</g>
<g>
</g>
<g>
</g>
<g>
</g>
<g>
</g>
<g>
</g>
<g>
</g>
<g>
</g>
<g>
</g>
<g>
</g>
<g>
</g>
<g>
</g>
<g>
</g>
<g>
</g>
</svg>
